<?xml version="1.0" encoding="UTF-8" standalone="no"?>
<!DOCTYPE svg PUBLIC "-//W3C//DTD SVG 1.1//EN"
 "http://www.w3.org/Graphics/SVG/1.1/DTD/svg11.dtd">
<!-- Generated by graphviz version 7.0.6 (20230107.1202)
 -->
<!-- Title: Tree Pages: 1 -->
<svg width="864pt" height="519pt"
 viewBox="0.00 0.00 864.00 519.32" xmlns="http://www.w3.org/2000/svg" xmlns:xlink="http://www.w3.org/1999/xlink">
<g id="graph0" class="graph" transform="scale(0.228119 0.228119) rotate(0) translate(4 2272.54)">
<title>Tree</title>
<polygon fill="white" stroke="none" points="-4,4 -4,-2272.54 3783.5,-2272.54 3783.5,4 -4,4"/>
<!-- 0 -->
<g id="node1" class="node">
<title>0</title>
<path fill="#f1b991" stroke="black" d="M3581,-2225C3581,-2225 3431,-2225 3431,-2225 3425,-2225 3419,-2219 3419,-2213 3419,-2213 3419,-2169 3419,-2169 3419,-2163 3425,-2157 3431,-2157 3431,-2157 3581,-2157 3581,-2157 3587,-2157 3593,-2163 3593,-2169 3593,-2169 3593,-2213 3593,-2213 3593,-2219 3587,-2225 3581,-2225"/>
<text text-anchor="start" x="3433" y="-2209.8" font-family="Helvetica,sans-Serif" font-size="14.00">onpromotion ≤ &#45;0.06</text>
<text text-anchor="start" x="3427" y="-2194.8" font-family="Helvetica,sans-Serif" font-size="14.00">squared_error = 61.16</text>
<text text-anchor="start" x="3435" y="-2179.8" font-family="Helvetica,sans-Serif" font-size="14.00">samples = 2108106</text>
<text text-anchor="start" x="3458" y="-2164.8" font-family="Helvetica,sans-Serif" font-size="14.00">value = &#45;1.69</text>
</g>
<!-- 1 -->
<g id="node2" class="node">
<title>1</title>
<path fill="#f2c09c" stroke="black" d="M3007,-1988C3007,-1988 2857,-1988 2857,-1988 2851,-1988 2845,-1982 2845,-1976 2845,-1976 2845,-1932 2845,-1932 2845,-1926 2851,-1920 2857,-1920 2857,-1920 3007,-1920 3007,-1920 3013,-1920 3019,-1926 3019,-1932 3019,-1932 3019,-1976 3019,-1976 3019,-1982 3013,-1988 3007,-1988"/>
<text text-anchor="start" x="2884" y="-1972.8" font-family="Helvetica,sans-Serif" font-size="14.00">family ≤ 14.5</text>
<text text-anchor="start" x="2853" y="-1957.8" font-family="Helvetica,sans-Serif" font-size="14.00">squared_error = 59.74</text>
<text text-anchor="start" x="2861" y="-1942.8" font-family="Helvetica,sans-Serif" font-size="14.00">samples = 1872939</text>
<text text-anchor="start" x="2884" y="-1927.8" font-family="Helvetica,sans-Serif" font-size="14.00">value = &#45;2.67</text>
</g>
<!-- 0&#45;&gt;1 -->
<g id="edge1" class="edge">
<title>0&#45;&gt;1</title>
<path fill="none" stroke="black" d="M3424.37,-2156.58C3318.68,-2113.31 3134.94,-2038.09 3024.29,-1992.78"/>
<polygon fill="black" stroke="black" points="3025.79,-1989.62 3015.21,-1989.07 3023.14,-1996.1 3025.79,-1989.62"/>
<text text-anchor="middle" x="3023.48" y="-2007.85" font-family="Helvetica,sans-Serif" font-size="14.00">True</text>
</g>
<!-- 2 -->
<g id="node39" class="node">
<title>2</title>
<path fill="#e58139" stroke="black" d="M3767.5,-86.5C3767.5,-86.5 3626.5,-86.5 3626.5,-86.5 3620.5,-86.5 3614.5,-80.5 3614.5,-74.5 3614.5,-74.5 3614.5,-45.5 3614.5,-45.5 3614.5,-39.5 3620.5,-33.5 3626.5,-33.5 3626.5,-33.5 3767.5,-33.5 3767.5,-33.5 3773.5,-33.5 3779.5,-39.5 3779.5,-45.5 3779.5,-45.5 3779.5,-74.5 3779.5,-74.5 3779.5,-80.5 3773.5,-86.5 3767.5,-86.5"/>
<text text-anchor="start" x="3622.5" y="-71.3" font-family="Helvetica,sans-Serif" font-size="14.00">squared_error = 2.76</text>
<text text-anchor="start" x="3630.5" y="-56.3" font-family="Helvetica,sans-Serif" font-size="14.00">samples = 235167</text>
<text text-anchor="start" x="3651.5" y="-41.3" font-family="Helvetica,sans-Serif" font-size="14.00">value = 6.18</text>
</g>
<!-- 0&#45;&gt;2 -->
<g id="edge38" class="edge">
<title>0&#45;&gt;2</title>
<path fill="none" stroke="black" d="M3519.58,-2156.5C3563.22,-2048.9 3697,-1719 3697,-1719 3697,-1719 3697,-1719 3697,-533 3697,-533 3697,-209.23 3697,-98"/>
<polygon fill="black" stroke="black" points="3700.5,-98.23 3697,-88.23 3693.5,-98.23 3700.5,-98.23"/>
<text text-anchor="middle" x="3714.68" y="-100.69" font-family="Helvetica,sans-Serif" font-size="14.00">False</text>
</g>
<!-- 3 -->
<g id="node3" class="node">
<title>3</title>
<path fill="#f0b68c" stroke="black" d="M1568,-1752C1568,-1752 1418,-1752 1418,-1752 1412,-1752 1406,-1746 1406,-1740 1406,-1740 1406,-1696 1406,-1696 1406,-1690 1412,-1684 1418,-1684 1418,-1684 1568,-1684 1568,-1684 1574,-1684 1580,-1690 1580,-1696 1580,-1696 1580,-1740 1580,-1740 1580,-1746 1574,-1752 1568,-1752"/>
<text text-anchor="start" x="1449.5" y="-1736.8" font-family="Helvetica,sans-Serif" font-size="14.00">family ≤ 7.5</text>
<text text-anchor="start" x="1414" y="-1721.8" font-family="Helvetica,sans-Serif" font-size="14.00">squared_error = 60.92</text>
<text text-anchor="start" x="1426.5" y="-1706.8" font-family="Helvetica,sans-Serif" font-size="14.00">samples = 731793</text>
<text text-anchor="start" x="1445" y="-1691.8" font-family="Helvetica,sans-Serif" font-size="14.00">value = &#45;1.21</text>
</g>
<!-- 1&#45;&gt;3 -->
<g id="edge2" class="edge">
<title>1&#45;&gt;3</title>
<path fill="none" stroke="black" d="M2844.69,-1938.8C2591.51,-1897.63 1858.15,-1778.38 1591.45,-1735.01"/>
<polygon fill="black" stroke="black" points="1592.18,-1731.58 1581.74,-1733.43 1591.05,-1738.49 1592.18,-1731.58"/>
</g>
<!-- 4 -->
<g id="node20" class="node">
<title>4</title>
<path fill="#f3c7a7" stroke="black" d="M3007,-1752C3007,-1752 2857,-1752 2857,-1752 2851,-1752 2845,-1746 2845,-1740 2845,-1740 2845,-1696 2845,-1696 2845,-1690 2851,-1684 2857,-1684 2857,-1684 3007,-1684 3007,-1684 3013,-1684 3019,-1690 3019,-1696 3019,-1696 3019,-1740 3019,-1740 3019,-1746 3013,-1752 3007,-1752"/>
<text text-anchor="start" x="2899" y="-1736.8" font-family="Helvetica,sans-Serif" font-size="14.00">id ≤ 0.84</text>
<text text-anchor="start" x="2853" y="-1721.8" font-family="Helvetica,sans-Serif" font-size="14.00">squared_error = 56.73</text>
<text text-anchor="start" x="2861" y="-1706.8" font-family="Helvetica,sans-Serif" font-size="14.00">samples = 1141146</text>
<text text-anchor="start" x="2884" y="-1691.8" font-family="Helvetica,sans-Serif" font-size="14.00">value = &#45;3.61</text>
</g>
<!-- 1&#45;&gt;4 -->
<g id="edge19" class="edge">
<title>1&#45;&gt;4</title>
<path fill="none" stroke="black" d="M2932,-1919.97C2932,-1879.06 2932,-1809.2 2932,-1763.57"/>
<polygon fill="black" stroke="black" points="2935.5,-1763.75 2932,-1753.75 2928.5,-1763.75 2935.5,-1763.75"/>
</g>
<!-- 5 -->
<g id="node4" class="node">
<title>5</title>
<path fill="#f4ccae" stroke="black" d="M444,-1515C444,-1515 294,-1515 294,-1515 288,-1515 282,-1509 282,-1503 282,-1503 282,-1459 282,-1459 282,-1453 288,-1447 294,-1447 294,-1447 444,-1447 444,-1447 450,-1447 456,-1453 456,-1459 456,-1459 456,-1503 456,-1503 456,-1509 450,-1515 444,-1515"/>
<text text-anchor="start" x="325.5" y="-1499.8" font-family="Helvetica,sans-Serif" font-size="14.00">family ≤ 1.5</text>
<text text-anchor="start" x="290" y="-1484.8" font-family="Helvetica,sans-Serif" font-size="14.00">squared_error = 58.34</text>
<text text-anchor="start" x="302.5" y="-1469.8" font-family="Helvetica,sans-Serif" font-size="14.00">samples = 403697</text>
<text text-anchor="start" x="321" y="-1454.8" font-family="Helvetica,sans-Serif" font-size="14.00">value = &#45;4.29</text>
</g>
<!-- 3&#45;&gt;5 -->
<g id="edge3" class="edge">
<title>3&#45;&gt;5</title>
<path fill="none" stroke="black" d="M1405.74,-1698.76C1199.65,-1655.67 683.85,-1547.83 467.23,-1502.54"/>
<polygon fill="black" stroke="black" points="468.19,-1499.16 457.69,-1500.54 466.76,-1506.02 468.19,-1499.16"/>
</g>
<!-- 6 -->
<g id="node17" class="node">
<title>6</title>
<path fill="#ea9b61" stroke="black" d="M1568,-1515C1568,-1515 1418,-1515 1418,-1515 1412,-1515 1406,-1509 1406,-1503 1406,-1503 1406,-1459 1406,-1459 1406,-1453 1412,-1447 1418,-1447 1418,-1447 1568,-1447 1568,-1447 1574,-1447 1580,-1453 1580,-1459 1580,-1459 1580,-1503 1580,-1503 1580,-1509 1574,-1515 1568,-1515"/>
<text text-anchor="start" x="1434" y="-1499.8" font-family="Helvetica,sans-Serif" font-size="14.00">store_nbr ≤ 1.54</text>
<text text-anchor="start" x="1414" y="-1484.8" font-family="Helvetica,sans-Serif" font-size="14.00">squared_error = 38.03</text>
<text text-anchor="start" x="1426.5" y="-1469.8" font-family="Helvetica,sans-Serif" font-size="14.00">samples = 328096</text>
<text text-anchor="start" x="1447.5" y="-1454.8" font-family="Helvetica,sans-Serif" font-size="14.00">value = 2.58</text>
</g>
<!-- 3&#45;&gt;6 -->
<g id="edge16" class="edge">
<title>3&#45;&gt;6</title>
<path fill="none" stroke="black" d="M1493,-1683.83C1493,-1642.74 1493,-1572.59 1493,-1526.76"/>
<polygon fill="black" stroke="black" points="1496.5,-1526.9 1493,-1516.9 1489.5,-1526.9 1496.5,-1526.9"/>
</g>
<!-- 27 -->
<g id="node5" class="node">
<title>27</title>
<path fill="#efb184" stroke="black" d="M162,-86.5C162,-86.5 12,-86.5 12,-86.5 6,-86.5 0,-80.5 0,-74.5 0,-74.5 0,-45.5 0,-45.5 0,-39.5 6,-33.5 12,-33.5 12,-33.5 162,-33.5 162,-33.5 168,-33.5 174,-39.5 174,-45.5 174,-45.5 174,-74.5 174,-74.5 174,-80.5 168,-86.5 162,-86.5"/>
<text text-anchor="start" x="8" y="-71.3" font-family="Helvetica,sans-Serif" font-size="14.00">squared_error = 23.65</text>
<text text-anchor="start" x="25" y="-56.3" font-family="Helvetica,sans-Serif" font-size="14.00">samples = 63044</text>
<text text-anchor="start" x="39" y="-41.3" font-family="Helvetica,sans-Serif" font-size="14.00">value = &#45;0.55</text>
</g>
<!-- 5&#45;&gt;27 -->
<g id="edge4" class="edge">
<title>5&#45;&gt;27</title>
<path fill="none" stroke="black" d="M349.17,-1446.81C284.98,-1339.37 87,-1008 87,-1008 87,-1008 87,-1008 87,-533 87,-533 87,-209.23 87,-98"/>
<polygon fill="black" stroke="black" points="90.5,-98.23 87,-88.23 83.5,-98.23 90.5,-98.23"/>
</g>
<!-- 28 -->
<g id="node6" class="node">
<title>28</title>
<path fill="#f5d1b6" stroke="black" d="M439.5,-1278C439.5,-1278 298.5,-1278 298.5,-1278 292.5,-1278 286.5,-1272 286.5,-1266 286.5,-1266 286.5,-1222 286.5,-1222 286.5,-1216 292.5,-1210 298.5,-1210 298.5,-1210 439.5,-1210 439.5,-1210 445.5,-1210 451.5,-1216 451.5,-1222 451.5,-1222 451.5,-1266 451.5,-1266 451.5,-1272 445.5,-1278 439.5,-1278"/>
<text text-anchor="start" x="325.5" y="-1262.8" font-family="Helvetica,sans-Serif" font-size="14.00">family ≤ 2.5</text>
<text text-anchor="start" x="294.5" y="-1247.8" font-family="Helvetica,sans-Serif" font-size="14.00">squared_error = 61.7</text>
<text text-anchor="start" x="302.5" y="-1232.8" font-family="Helvetica,sans-Serif" font-size="14.00">samples = 340653</text>
<text text-anchor="start" x="321" y="-1217.8" font-family="Helvetica,sans-Serif" font-size="14.00">value = &#45;4.98</text>
</g>
<!-- 5&#45;&gt;28 -->
<g id="edge5" class="edge">
<title>5&#45;&gt;28</title>
<path fill="none" stroke="black" d="M369,-1446.83C369,-1405.74 369,-1335.59 369,-1289.76"/>
<polygon fill="black" stroke="black" points="372.5,-1289.9 369,-1279.9 365.5,-1289.9 372.5,-1289.9"/>
</g>
<!-- 29 -->
<g id="node7" class="node">
<title>29</title>
<path fill="#fffdfc" stroke="black" d="M345.5,-86.5C345.5,-86.5 204.5,-86.5 204.5,-86.5 198.5,-86.5 192.5,-80.5 192.5,-74.5 192.5,-74.5 192.5,-45.5 192.5,-45.5 192.5,-39.5 198.5,-33.5 204.5,-33.5 204.5,-33.5 345.5,-33.5 345.5,-33.5 351.5,-33.5 357.5,-39.5 357.5,-45.5 357.5,-45.5 357.5,-74.5 357.5,-74.5 357.5,-80.5 351.5,-86.5 345.5,-86.5"/>
<text text-anchor="start" x="200.5" y="-71.3" font-family="Helvetica,sans-Serif" font-size="14.00">squared_error = 3.28</text>
<text text-anchor="start" x="213" y="-56.3" font-family="Helvetica,sans-Serif" font-size="14.00">samples = 63878</text>
<text text-anchor="start" x="222.5" y="-41.3" font-family="Helvetica,sans-Serif" font-size="14.00">value = &#45;11.24</text>
</g>
<!-- 28&#45;&gt;29 -->
<g id="edge6" class="edge">
<title>28&#45;&gt;29</title>
<path fill="none" stroke="black" d="M362.32,-1209.5C340.84,-1101.9 275,-772 275,-772 275,-772 275,-772 275,-533 275,-533 275,-209.23 275,-98"/>
<polygon fill="black" stroke="black" points="278.5,-98.23 275,-88.23 271.5,-98.23 278.5,-98.23"/>
</g>
<!-- 30 -->
<g id="node8" class="node">
<title>30</title>
<path fill="#f3c6a6" stroke="black" d="M538,-1041C538,-1041 388,-1041 388,-1041 382,-1041 376,-1035 376,-1029 376,-1029 376,-985 376,-985 376,-979 382,-973 388,-973 388,-973 538,-973 538,-973 544,-973 550,-979 550,-985 550,-985 550,-1029 550,-1029 550,-1035 544,-1041 538,-1041"/>
<text text-anchor="start" x="419.5" y="-1025.8" font-family="Helvetica,sans-Serif" font-size="14.00">family ≤ 4.5</text>
<text text-anchor="start" x="384" y="-1010.8" font-family="Helvetica,sans-Serif" font-size="14.00">squared_error = 64.07</text>
<text text-anchor="start" x="396.5" y="-995.8" font-family="Helvetica,sans-Serif" font-size="14.00">samples = 276775</text>
<text text-anchor="start" x="415" y="-980.8" font-family="Helvetica,sans-Serif" font-size="14.00">value = &#45;3.54</text>
</g>
<!-- 28&#45;&gt;30 -->
<g id="edge7" class="edge">
<title>28&#45;&gt;30</title>
<path fill="none" stroke="black" d="M382.27,-1209.83C398.81,-1168.48 427.12,-1097.69 445.44,-1051.89"/>
<polygon fill="black" stroke="black" points="448.62,-1053.37 449.08,-1042.79 442.12,-1050.77 448.62,-1053.37"/>
</g>
<!-- 31 -->
<g id="node9" class="node">
<title>31</title>
<path fill="#eeaf81" stroke="black" d="M538,-86.5C538,-86.5 388,-86.5 388,-86.5 382,-86.5 376,-80.5 376,-74.5 376,-74.5 376,-45.5 376,-45.5 376,-39.5 382,-33.5 388,-33.5 388,-33.5 538,-33.5 538,-33.5 544,-33.5 550,-39.5 550,-45.5 550,-45.5 550,-74.5 550,-74.5 550,-80.5 544,-86.5 538,-86.5"/>
<text text-anchor="start" x="384" y="-71.3" font-family="Helvetica,sans-Serif" font-size="14.00">squared_error = 50.83</text>
<text text-anchor="start" x="396.5" y="-56.3" font-family="Helvetica,sans-Serif" font-size="14.00">samples = 100789</text>
<text text-anchor="start" x="415" y="-41.3" font-family="Helvetica,sans-Serif" font-size="14.00">value = &#45;0.28</text>
</g>
<!-- 30&#45;&gt;31 -->
<g id="edge8" class="edge">
<title>30&#45;&gt;31</title>
<path fill="none" stroke="black" d="M463,-972.64C463,-827.46 463,-251.02 463,-98.3"/>
<polygon fill="black" stroke="black" points="466.5,-98.35 463,-88.35 459.5,-98.35 466.5,-98.35"/>
</g>
<!-- 32 -->
<g id="node10" class="node">
<title>32</title>
<path fill="#f6d4bb" stroke="black" d="M721,-805C721,-805 571,-805 571,-805 565,-805 559,-799 559,-793 559,-793 559,-749 559,-749 559,-743 565,-737 571,-737 571,-737 721,-737 721,-737 727,-737 733,-743 733,-749 733,-749 733,-793 733,-793 733,-799 727,-805 721,-805"/>
<text text-anchor="start" x="602.5" y="-789.8" font-family="Helvetica,sans-Serif" font-size="14.00">family ≤ 5.5</text>
<text text-anchor="start" x="567" y="-774.8" font-family="Helvetica,sans-Serif" font-size="14.00">squared_error = 62.08</text>
<text text-anchor="start" x="579.5" y="-759.8" font-family="Helvetica,sans-Serif" font-size="14.00">samples = 175986</text>
<text text-anchor="start" x="598" y="-744.8" font-family="Helvetica,sans-Serif" font-size="14.00">value = &#45;5.41</text>
</g>
<!-- 30&#45;&gt;32 -->
<g id="edge9" class="edge">
<title>30&#45;&gt;32</title>
<path fill="none" stroke="black" d="M488.83,-972.97C521.37,-931.36 577.32,-859.82 612.95,-814.27"/>
<polygon fill="black" stroke="black" points="615.67,-816.47 619.07,-806.43 610.15,-812.15 615.67,-816.47"/>
</g>
<!-- 33 -->
<g id="node11" class="node">
<title>33</title>
<path fill="#ffffff" stroke="black" d="M712,-86.5C712,-86.5 580,-86.5 580,-86.5 574,-86.5 568,-80.5 568,-74.5 568,-74.5 568,-45.5 568,-45.5 568,-39.5 574,-33.5 580,-33.5 580,-33.5 712,-33.5 712,-33.5 718,-33.5 724,-39.5 724,-45.5 724,-45.5 724,-74.5 724,-74.5 724,-80.5 718,-86.5 712,-86.5"/>
<text text-anchor="start" x="576" y="-71.3" font-family="Helvetica,sans-Serif" font-size="14.00">squared_error = 0.0</text>
<text text-anchor="start" x="584" y="-56.3" font-family="Helvetica,sans-Serif" font-size="14.00">samples = 63882</text>
<text text-anchor="start" x="593.5" y="-41.3" font-family="Helvetica,sans-Serif" font-size="14.00">value = &#45;11.51</text>
</g>
<!-- 32&#45;&gt;33 -->
<g id="edge10" class="edge">
<title>32&#45;&gt;33</title>
<path fill="none" stroke="black" d="M646,-736.75C646,-618.98 646,-222.09 646,-98.24"/>
<polygon fill="black" stroke="black" points="649.5,-98.31 646,-88.31 642.5,-98.31 649.5,-98.31"/>
</g>
<!-- 34 -->
<g id="node12" class="node">
<title>34</title>
<path fill="#f1bb94" stroke="black" d="M899.5,-568C899.5,-568 758.5,-568 758.5,-568 752.5,-568 746.5,-562 746.5,-556 746.5,-556 746.5,-512 746.5,-512 746.5,-506 752.5,-500 758.5,-500 758.5,-500 899.5,-500 899.5,-500 905.5,-500 911.5,-506 911.5,-512 911.5,-512 911.5,-556 911.5,-556 911.5,-562 905.5,-568 899.5,-568"/>
<text text-anchor="start" x="785.5" y="-552.8" font-family="Helvetica,sans-Serif" font-size="14.00">family ≤ 6.5</text>
<text text-anchor="start" x="754.5" y="-537.8" font-family="Helvetica,sans-Serif" font-size="14.00">squared_error = 64.1</text>
<text text-anchor="start" x="762.5" y="-522.8" font-family="Helvetica,sans-Serif" font-size="14.00">samples = 112104</text>
<text text-anchor="start" x="781" y="-507.8" font-family="Helvetica,sans-Serif" font-size="14.00">value = &#45;1.93</text>
</g>
<!-- 32&#45;&gt;34 -->
<g id="edge11" class="edge">
<title>32&#45;&gt;34</title>
<path fill="none" stroke="black" d="M671.83,-736.83C704.37,-695.05 760.32,-623.19 795.95,-577.45"/>
<polygon fill="black" stroke="black" points="798.69,-579.62 802.07,-569.58 793.17,-575.32 798.69,-579.62"/>
</g>
<!-- 35 -->
<g id="node13" class="node">
<title>35</title>
<path fill="#e99457" stroke="black" d="M904,-86.5C904,-86.5 754,-86.5 754,-86.5 748,-86.5 742,-80.5 742,-74.5 742,-74.5 742,-45.5 742,-45.5 742,-39.5 748,-33.5 754,-33.5 754,-33.5 904,-33.5 904,-33.5 910,-33.5 916,-39.5 916,-45.5 916,-45.5 916,-74.5 916,-74.5 916,-80.5 910,-86.5 904,-86.5"/>
<text text-anchor="start" x="750" y="-71.3" font-family="Helvetica,sans-Serif" font-size="14.00">squared_error = 35.99</text>
<text text-anchor="start" x="767" y="-56.3" font-family="Helvetica,sans-Serif" font-size="14.00">samples = 49076</text>
<text text-anchor="start" x="783.5" y="-41.3" font-family="Helvetica,sans-Serif" font-size="14.00">value = 3.46</text>
</g>
<!-- 34&#45;&gt;35 -->
<g id="edge12" class="edge">
<title>34&#45;&gt;35</title>
<path fill="none" stroke="black" d="M829,-499.81C829,-414.55 829,-188.25 829,-98.47"/>
<polygon fill="black" stroke="black" points="832.5,-98.49 829,-88.49 825.5,-98.49 832.5,-98.49"/>
</g>
<!-- 36 -->
<g id="node14" class="node">
<title>36</title>
<path fill="#f7d9c3" stroke="black" d="M1092,-331C1092,-331 942,-331 942,-331 936,-331 930,-325 930,-319 930,-319 930,-275 930,-275 930,-269 936,-263 942,-263 942,-263 1092,-263 1092,-263 1098,-263 1104,-269 1104,-275 1104,-275 1104,-319 1104,-319 1104,-325 1098,-331 1092,-331"/>
<text text-anchor="start" x="970.5" y="-315.8" font-family="Helvetica,sans-Serif" font-size="14.00">date ≤ 879.5</text>
<text text-anchor="start" x="938" y="-300.8" font-family="Helvetica,sans-Serif" font-size="14.00">squared_error = 45.75</text>
<text text-anchor="start" x="955" y="-285.8" font-family="Helvetica,sans-Serif" font-size="14.00">samples = 63028</text>
<text text-anchor="start" x="969" y="-270.8" font-family="Helvetica,sans-Serif" font-size="14.00">value = &#45;6.12</text>
</g>
<!-- 34&#45;&gt;36 -->
<g id="edge13" class="edge">
<title>34&#45;&gt;36</title>
<path fill="none" stroke="black" d="M855.54,-499.83C889.03,-457.96 946.68,-385.89 983.27,-340.16"/>
<polygon fill="black" stroke="black" points="985.83,-342.56 989.35,-332.56 980.37,-338.19 985.83,-342.56"/>
</g>
<!-- 37 -->
<g id="node15" class="node">
<title>37</title>
<path fill="#fbebe0" stroke="black" d="M1087.5,-86.5C1087.5,-86.5 946.5,-86.5 946.5,-86.5 940.5,-86.5 934.5,-80.5 934.5,-74.5 934.5,-74.5 934.5,-45.5 934.5,-45.5 934.5,-39.5 940.5,-33.5 946.5,-33.5 946.5,-33.5 1087.5,-33.5 1087.5,-33.5 1093.5,-33.5 1099.5,-39.5 1099.5,-45.5 1099.5,-45.5 1099.5,-74.5 1099.5,-74.5 1099.5,-80.5 1093.5,-86.5 1087.5,-86.5"/>
<text text-anchor="start" x="942.5" y="-71.3" font-family="Helvetica,sans-Serif" font-size="14.00">squared_error = 30.8</text>
<text text-anchor="start" x="955" y="-56.3" font-family="Helvetica,sans-Serif" font-size="14.00">samples = 47054</text>
<text text-anchor="start" x="969" y="-41.3" font-family="Helvetica,sans-Serif" font-size="14.00">value = &#45;8.72</text>
</g>
<!-- 36&#45;&gt;37 -->
<g id="edge14" class="edge">
<title>36&#45;&gt;37</title>
<path fill="none" stroke="black" d="M1017,-262.83C1017,-219.39 1017,-143.46 1017,-98.14"/>
<polygon fill="black" stroke="black" points="1020.5,-98.28 1017,-88.28 1013.5,-98.28 1020.5,-98.28"/>
</g>
<!-- 38 -->
<g id="node16" class="node">
<title>38</title>
<path fill="#eca26d" stroke="black" d="M1280,-86.5C1280,-86.5 1130,-86.5 1130,-86.5 1124,-86.5 1118,-80.5 1118,-74.5 1118,-74.5 1118,-45.5 1118,-45.5 1118,-39.5 1124,-33.5 1130,-33.5 1130,-33.5 1280,-33.5 1280,-33.5 1286,-33.5 1292,-39.5 1292,-45.5 1292,-45.5 1292,-74.5 1292,-74.5 1292,-80.5 1286,-86.5 1280,-86.5"/>
<text text-anchor="start" x="1126" y="-71.3" font-family="Helvetica,sans-Serif" font-size="14.00">squared_error = 11.23</text>
<text text-anchor="start" x="1143" y="-56.3" font-family="Helvetica,sans-Serif" font-size="14.00">samples = 15974</text>
<text text-anchor="start" x="1159.5" y="-41.3" font-family="Helvetica,sans-Serif" font-size="14.00">value = 1.54</text>
</g>
<!-- 36&#45;&gt;38 -->
<g id="edge15" class="edge">
<title>36&#45;&gt;38</title>
<path fill="none" stroke="black" d="M1043.54,-262.83C1078.95,-218.56 1141.37,-140.54 1177.34,-95.57"/>
<polygon fill="black" stroke="black" points="1179.92,-97.95 1183.44,-87.95 1174.46,-93.57 1179.92,-97.95"/>
</g>
<!-- 23 -->
<g id="node18" class="node">
<title>23</title>
<path fill="#ea975c" stroke="black" d="M1472,-86.5C1472,-86.5 1322,-86.5 1322,-86.5 1316,-86.5 1310,-80.5 1310,-74.5 1310,-74.5 1310,-45.5 1310,-45.5 1310,-39.5 1316,-33.5 1322,-33.5 1322,-33.5 1472,-33.5 1472,-33.5 1478,-33.5 1484,-39.5 1484,-45.5 1484,-45.5 1484,-74.5 1484,-74.5 1484,-80.5 1478,-86.5 1472,-86.5"/>
<text text-anchor="start" x="1318" y="-71.3" font-family="Helvetica,sans-Serif" font-size="14.00">squared_error = 32.38</text>
<text text-anchor="start" x="1330.5" y="-56.3" font-family="Helvetica,sans-Serif" font-size="14.00">samples = 308141</text>
<text text-anchor="start" x="1351.5" y="-41.3" font-family="Helvetica,sans-Serif" font-size="14.00">value = 3.09</text>
</g>
<!-- 6&#45;&gt;23 -->
<g id="edge17" class="edge">
<title>6&#45;&gt;23</title>
<path fill="none" stroke="black" d="M1486.25,-1446.81C1464.4,-1339.37 1397,-1008 1397,-1008 1397,-1008 1397,-1008 1397,-533 1397,-533 1397,-209.23 1397,-98"/>
<polygon fill="black" stroke="black" points="1400.5,-98.23 1397,-88.23 1393.5,-98.23 1400.5,-98.23"/>
</g>
<!-- 24 -->
<g id="node19" class="node">
<title>24</title>
<path fill="#f6d2b8" stroke="black" d="M1664,-86.5C1664,-86.5 1514,-86.5 1514,-86.5 1508,-86.5 1502,-80.5 1502,-74.5 1502,-74.5 1502,-45.5 1502,-45.5 1502,-39.5 1508,-33.5 1514,-33.5 1514,-33.5 1664,-33.5 1664,-33.5 1670,-33.5 1676,-39.5 1676,-45.5 1676,-45.5 1676,-74.5 1676,-74.5 1676,-80.5 1670,-86.5 1664,-86.5"/>
<text text-anchor="start" x="1510" y="-71.3" font-family="Helvetica,sans-Serif" font-size="14.00">squared_error = 60.76</text>
<text text-anchor="start" x="1527" y="-56.3" font-family="Helvetica,sans-Serif" font-size="14.00">samples = 19955</text>
<text text-anchor="start" x="1541" y="-41.3" font-family="Helvetica,sans-Serif" font-size="14.00">value = &#45;5.21</text>
</g>
<!-- 6&#45;&gt;24 -->
<g id="edge18" class="edge">
<title>6&#45;&gt;24</title>
<path fill="none" stroke="black" d="M1499.75,-1446.81C1521.6,-1339.37 1589,-1008 1589,-1008 1589,-1008 1589,-1008 1589,-533 1589,-533 1589,-209.23 1589,-98"/>
<polygon fill="black" stroke="black" points="1592.5,-98.23 1589,-88.23 1585.5,-98.23 1592.5,-98.23"/>
</g>
<!-- 7 -->
<g id="node21" class="node">
<title>7</title>
<path fill="#f5ceb2" stroke="black" d="M2715.5,-1515C2715.5,-1515 2574.5,-1515 2574.5,-1515 2568.5,-1515 2562.5,-1509 2562.5,-1503 2562.5,-1503 2562.5,-1459 2562.5,-1459 2562.5,-1453 2568.5,-1447 2574.5,-1447 2574.5,-1447 2715.5,-1447 2715.5,-1447 2721.5,-1447 2727.5,-1453 2727.5,-1459 2727.5,-1459 2727.5,-1503 2727.5,-1503 2727.5,-1509 2721.5,-1515 2715.5,-1515"/>
<text text-anchor="start" x="2597" y="-1499.8" font-family="Helvetica,sans-Serif" font-size="14.00">family ≤ 21.5</text>
<text text-anchor="start" x="2570.5" y="-1484.8" font-family="Helvetica,sans-Serif" font-size="14.00">squared_error = 56.8</text>
<text text-anchor="start" x="2578.5" y="-1469.8" font-family="Helvetica,sans-Serif" font-size="14.00">samples = 870374</text>
<text text-anchor="start" x="2601.5" y="-1454.8" font-family="Helvetica,sans-Serif" font-size="14.00">value = &#45;4.6</text>
</g>
<!-- 4&#45;&gt;7 -->
<g id="edge20" class="edge">
<title>4&#45;&gt;7</title>
<path fill="none" stroke="black" d="M2891.18,-1683.58C2839.33,-1641.12 2749.91,-1567.9 2694.3,-1522.37"/>
<polygon fill="black" stroke="black" points="2696.8,-1519.89 2686.85,-1516.26 2692.37,-1525.31 2696.8,-1519.89"/>
</g>
<!-- 8 -->
<g id="node38" class="node">
<title>8</title>
<path fill="#efb083" stroke="black" d="M3584,-86.5C3584,-86.5 3434,-86.5 3434,-86.5 3428,-86.5 3422,-80.5 3422,-74.5 3422,-74.5 3422,-45.5 3422,-45.5 3422,-39.5 3428,-33.5 3434,-33.5 3434,-33.5 3584,-33.5 3584,-33.5 3590,-33.5 3596,-39.5 3596,-45.5 3596,-45.5 3596,-74.5 3596,-74.5 3596,-80.5 3590,-86.5 3584,-86.5"/>
<text text-anchor="start" x="3430" y="-71.3" font-family="Helvetica,sans-Serif" font-size="14.00">squared_error = 43.17</text>
<text text-anchor="start" x="3442.5" y="-56.3" font-family="Helvetica,sans-Serif" font-size="14.00">samples = 270772</text>
<text text-anchor="start" x="3461" y="-41.3" font-family="Helvetica,sans-Serif" font-size="14.00">value = &#45;0.42</text>
</g>
<!-- 4&#45;&gt;8 -->
<g id="edge37" class="edge">
<title>4&#45;&gt;8</title>
<path fill="none" stroke="black" d="M2972.57,-1683.81C3103.91,-1576.37 3509,-1245 3509,-1245 3509,-1245 3509,-1245 3509,-533 3509,-533 3509,-209.23 3509,-98"/>
<polygon fill="black" stroke="black" points="3512.5,-98.23 3509,-88.23 3505.5,-98.23 3512.5,-98.23"/>
</g>
<!-- 9 -->
<g id="node22" class="node">
<title>9</title>
<path fill="#f9e0ce" stroke="black" d="M2043.5,-1278C2043.5,-1278 1902.5,-1278 1902.5,-1278 1896.5,-1278 1890.5,-1272 1890.5,-1266 1890.5,-1266 1890.5,-1222 1890.5,-1222 1890.5,-1216 1896.5,-1210 1902.5,-1210 1902.5,-1210 2043.5,-1210 2043.5,-1210 2049.5,-1210 2055.5,-1216 2055.5,-1222 2055.5,-1222 2055.5,-1266 2055.5,-1266 2055.5,-1272 2049.5,-1278 2043.5,-1278"/>
<text text-anchor="start" x="1937.5" y="-1262.8" font-family="Helvetica,sans-Serif" font-size="14.00">id ≤ &#45;0.66</text>
<text text-anchor="start" x="1898.5" y="-1247.8" font-family="Helvetica,sans-Serif" font-size="14.00">squared_error = 40.7</text>
<text text-anchor="start" x="1906.5" y="-1232.8" font-family="Helvetica,sans-Serif" font-size="14.00">samples = 327591</text>
<text text-anchor="start" x="1929.5" y="-1217.8" font-family="Helvetica,sans-Serif" font-size="14.00">value = &#45;7.1</text>
</g>
<!-- 7&#45;&gt;9 -->
<g id="edge21" class="edge">
<title>7&#45;&gt;9</title>
<path fill="none" stroke="black" d="M2562.26,-1451.07C2436.69,-1407.15 2198.7,-1323.93 2066.84,-1277.82"/>
<polygon fill="black" stroke="black" points="2068,-1274.51 2057.41,-1274.52 2065.69,-1281.12 2068,-1274.51"/>
</g>
<!-- 10 -->
<g id="node25" class="node">
<title>10</title>
<path fill="#f3c3a1" stroke="black" d="M2720,-1278C2720,-1278 2570,-1278 2570,-1278 2564,-1278 2558,-1272 2558,-1266 2558,-1266 2558,-1222 2558,-1222 2558,-1216 2564,-1210 2570,-1210 2570,-1210 2720,-1210 2720,-1210 2726,-1210 2732,-1216 2732,-1222 2732,-1222 2732,-1266 2732,-1266 2732,-1272 2726,-1278 2720,-1278"/>
<text text-anchor="start" x="2597" y="-1262.8" font-family="Helvetica,sans-Serif" font-size="14.00">family ≤ 26.5</text>
<text text-anchor="start" x="2566" y="-1247.8" font-family="Helvetica,sans-Serif" font-size="14.00">squared_error = 60.46</text>
<text text-anchor="start" x="2578.5" y="-1232.8" font-family="Helvetica,sans-Serif" font-size="14.00">samples = 542783</text>
<text text-anchor="start" x="2601.5" y="-1217.8" font-family="Helvetica,sans-Serif" font-size="14.00">value = &#45;3.1</text>
</g>
<!-- 7&#45;&gt;10 -->
<g id="edge24" class="edge">
<title>7&#45;&gt;10</title>
<path fill="none" stroke="black" d="M2645,-1446.83C2645,-1405.74 2645,-1335.59 2645,-1289.76"/>
<polygon fill="black" stroke="black" points="2648.5,-1289.9 2645,-1279.9 2641.5,-1289.9 2648.5,-1289.9"/>
</g>
<!-- 21 -->
<g id="node23" class="node">
<title>21</title>
<path fill="#fcf1e9" stroke="black" d="M1856,-86.5C1856,-86.5 1706,-86.5 1706,-86.5 1700,-86.5 1694,-80.5 1694,-74.5 1694,-74.5 1694,-45.5 1694,-45.5 1694,-39.5 1700,-33.5 1706,-33.5 1706,-33.5 1856,-33.5 1856,-33.5 1862,-33.5 1868,-39.5 1868,-45.5 1868,-45.5 1868,-74.5 1868,-74.5 1868,-80.5 1862,-86.5 1856,-86.5"/>
<text text-anchor="start" x="1702" y="-71.3" font-family="Helvetica,sans-Serif" font-size="14.00">squared_error = 20.85</text>
<text text-anchor="start" x="1714.5" y="-56.3" font-family="Helvetica,sans-Serif" font-size="14.00">samples = 137970</text>
<text text-anchor="start" x="1733" y="-41.3" font-family="Helvetica,sans-Serif" font-size="14.00">value = &#45;9.51</text>
</g>
<!-- 9&#45;&gt;21 -->
<g id="edge22" class="edge">
<title>9&#45;&gt;21</title>
<path fill="none" stroke="black" d="M1959.35,-1209.5C1915.48,-1101.9 1781,-772 1781,-772 1781,-772 1781,-772 1781,-533 1781,-533 1781,-209.23 1781,-98"/>
<polygon fill="black" stroke="black" points="1784.5,-98.23 1781,-88.23 1777.5,-98.23 1784.5,-98.23"/>
</g>
<!-- 22 -->
<g id="node24" class="node">
<title>22</title>
<path fill="#f6d3ba" stroke="black" d="M2048,-86.5C2048,-86.5 1898,-86.5 1898,-86.5 1892,-86.5 1886,-80.5 1886,-74.5 1886,-74.5 1886,-45.5 1886,-45.5 1886,-39.5 1892,-33.5 1898,-33.5 1898,-33.5 2048,-33.5 2048,-33.5 2054,-33.5 2060,-39.5 2060,-45.5 2060,-45.5 2060,-74.5 2060,-74.5 2060,-80.5 2054,-86.5 2048,-86.5"/>
<text text-anchor="start" x="1894" y="-71.3" font-family="Helvetica,sans-Serif" font-size="14.00">squared_error = 47.88</text>
<text text-anchor="start" x="1906.5" y="-56.3" font-family="Helvetica,sans-Serif" font-size="14.00">samples = 189621</text>
<text text-anchor="start" x="1925" y="-41.3" font-family="Helvetica,sans-Serif" font-size="14.00">value = &#45;5.36</text>
</g>
<!-- 9&#45;&gt;22 -->
<g id="edge23" class="edge">
<title>9&#45;&gt;22</title>
<path fill="none" stroke="black" d="M1973,-1209.5C1973,-1101.9 1973,-772 1973,-772 1973,-772 1973,-772 1973,-533 1973,-533 1973,-209.23 1973,-98"/>
<polygon fill="black" stroke="black" points="1976.5,-98.23 1973,-88.23 1969.5,-98.23 1976.5,-98.23"/>
</g>
<!-- 11 -->
<g id="node26" class="node">
<title>11</title>
<path fill="#f0b58b" stroke="black" d="M2624,-1041C2624,-1041 2474,-1041 2474,-1041 2468,-1041 2462,-1035 2462,-1029 2462,-1029 2462,-985 2462,-985 2462,-979 2468,-973 2474,-973 2474,-973 2624,-973 2624,-973 2630,-973 2636,-979 2636,-985 2636,-985 2636,-1029 2636,-1029 2636,-1035 2630,-1041 2624,-1041"/>
<text text-anchor="start" x="2501" y="-1025.8" font-family="Helvetica,sans-Serif" font-size="14.00">family ≤ 24.5</text>
<text text-anchor="start" x="2470" y="-1010.8" font-family="Helvetica,sans-Serif" font-size="14.00">squared_error = 55.52</text>
<text text-anchor="start" x="2482.5" y="-995.8" font-family="Helvetica,sans-Serif" font-size="14.00">samples = 225684</text>
<text text-anchor="start" x="2501" y="-980.8" font-family="Helvetica,sans-Serif" font-size="14.00">value = &#45;1.11</text>
</g>
<!-- 10&#45;&gt;11 -->
<g id="edge25" class="edge">
<title>10&#45;&gt;11</title>
<path fill="none" stroke="black" d="M2631.45,-1209.83C2614.56,-1168.48 2585.64,-1097.69 2566.93,-1051.89"/>
<polygon fill="black" stroke="black" points="2570.23,-1050.72 2563.21,-1042.78 2563.75,-1053.36 2570.23,-1050.72"/>
</g>
<!-- 12 -->
<g id="node31" class="node">
<title>12</title>
<path fill="#f5cdb1" stroke="black" d="M2816,-1041C2816,-1041 2666,-1041 2666,-1041 2660,-1041 2654,-1035 2654,-1029 2654,-1029 2654,-985 2654,-985 2654,-979 2660,-973 2666,-973 2666,-973 2816,-973 2816,-973 2822,-973 2828,-979 2828,-985 2828,-985 2828,-1029 2828,-1029 2828,-1035 2822,-1041 2816,-1041"/>
<text text-anchor="start" x="2693" y="-1025.8" font-family="Helvetica,sans-Serif" font-size="14.00">family ≤ 28.5</text>
<text text-anchor="start" x="2662" y="-1010.8" font-family="Helvetica,sans-Serif" font-size="14.00">squared_error = 59.19</text>
<text text-anchor="start" x="2674.5" y="-995.8" font-family="Helvetica,sans-Serif" font-size="14.00">samples = 317099</text>
<text text-anchor="start" x="2693" y="-980.8" font-family="Helvetica,sans-Serif" font-size="14.00">value = &#45;4.51</text>
</g>
<!-- 10&#45;&gt;12 -->
<g id="edge30" class="edge">
<title>10&#45;&gt;12</title>
<path fill="none" stroke="black" d="M2658.55,-1209.83C2675.44,-1168.48 2704.36,-1097.69 2723.07,-1051.89"/>
<polygon fill="black" stroke="black" points="2726.25,-1053.36 2726.79,-1042.78 2719.77,-1050.72 2726.25,-1053.36"/>
</g>
<!-- 17 -->
<g id="node27" class="node">
<title>17</title>
<path fill="#f3c6a5" stroke="black" d="M2432,-805C2432,-805 2282,-805 2282,-805 2276,-805 2270,-799 2270,-793 2270,-793 2270,-749 2270,-749 2270,-743 2276,-737 2282,-737 2282,-737 2432,-737 2432,-737 2438,-737 2444,-743 2444,-749 2444,-749 2444,-793 2444,-793 2444,-799 2438,-805 2432,-805"/>
<text text-anchor="start" x="2309" y="-789.8" font-family="Helvetica,sans-Serif" font-size="14.00">family ≤ 23.5</text>
<text text-anchor="start" x="2278" y="-774.8" font-family="Helvetica,sans-Serif" font-size="14.00">squared_error = 51.44</text>
<text text-anchor="start" x="2290.5" y="-759.8" font-family="Helvetica,sans-Serif" font-size="14.00">samples = 142129</text>
<text text-anchor="start" x="2313.5" y="-744.8" font-family="Helvetica,sans-Serif" font-size="14.00">value = &#45;3.5</text>
</g>
<!-- 11&#45;&gt;17 -->
<g id="edge26" class="edge">
<title>11&#45;&gt;17</title>
<path fill="none" stroke="black" d="M2521.9,-972.97C2487.69,-931.28 2428.81,-859.52 2391.45,-813.98"/>
<polygon fill="black" stroke="black" points="2394.28,-811.92 2385.23,-806.41 2388.87,-816.36 2394.28,-811.92"/>
</g>
<!-- 18 -->
<g id="node30" class="node">
<title>18</title>
<path fill="#ea985d" stroke="black" d="M2624,-86.5C2624,-86.5 2474,-86.5 2474,-86.5 2468,-86.5 2462,-80.5 2462,-74.5 2462,-74.5 2462,-45.5 2462,-45.5 2462,-39.5 2468,-33.5 2474,-33.5 2474,-33.5 2624,-33.5 2624,-33.5 2630,-33.5 2636,-39.5 2636,-45.5 2636,-45.5 2636,-74.5 2636,-74.5 2636,-80.5 2630,-86.5 2624,-86.5"/>
<text text-anchor="start" x="2470" y="-71.3" font-family="Helvetica,sans-Serif" font-size="14.00">squared_error = 36.23</text>
<text text-anchor="start" x="2487" y="-56.3" font-family="Helvetica,sans-Serif" font-size="14.00">samples = 83555</text>
<text text-anchor="start" x="2503.5" y="-41.3" font-family="Helvetica,sans-Serif" font-size="14.00">value = 2.95</text>
</g>
<!-- 11&#45;&gt;18 -->
<g id="edge29" class="edge">
<title>11&#45;&gt;18</title>
<path fill="none" stroke="black" d="M2549,-972.64C2549,-827.46 2549,-251.02 2549,-98.3"/>
<polygon fill="black" stroke="black" points="2552.5,-98.35 2549,-88.35 2545.5,-98.35 2552.5,-98.35"/>
</g>
<!-- 19 -->
<g id="node28" class="node">
<title>19</title>
<path fill="#eeaf81" stroke="black" d="M2240,-86.5C2240,-86.5 2090,-86.5 2090,-86.5 2084,-86.5 2078,-80.5 2078,-74.5 2078,-74.5 2078,-45.5 2078,-45.5 2078,-39.5 2084,-33.5 2090,-33.5 2090,-33.5 2240,-33.5 2240,-33.5 2246,-33.5 2252,-39.5 2252,-45.5 2252,-45.5 2252,-74.5 2252,-74.5 2252,-80.5 2246,-86.5 2240,-86.5"/>
<text text-anchor="start" x="2086" y="-71.3" font-family="Helvetica,sans-Serif" font-size="14.00">squared_error = 37.53</text>
<text text-anchor="start" x="2103" y="-56.3" font-family="Helvetica,sans-Serif" font-size="14.00">samples = 94669</text>
<text text-anchor="start" x="2117" y="-41.3" font-family="Helvetica,sans-Serif" font-size="14.00">value = &#45;0.28</text>
</g>
<!-- 17&#45;&gt;19 -->
<g id="edge27" class="edge">
<title>17&#45;&gt;19</title>
<path fill="none" stroke="black" d="M2348,-736.75C2316.07,-618.87 2208.41,-221.29 2174.98,-97.86"/>
<polygon fill="black" stroke="black" points="2178.37,-96.99 2172.38,-88.25 2171.62,-98.82 2178.37,-96.99"/>
</g>
<!-- 20 -->
<g id="node29" class="node">
<title>20</title>
<path fill="#fdf4ed" stroke="black" d="M2432,-86.5C2432,-86.5 2282,-86.5 2282,-86.5 2276,-86.5 2270,-80.5 2270,-74.5 2270,-74.5 2270,-45.5 2270,-45.5 2270,-39.5 2276,-33.5 2282,-33.5 2282,-33.5 2432,-33.5 2432,-33.5 2438,-33.5 2444,-39.5 2444,-45.5 2444,-45.5 2444,-74.5 2444,-74.5 2444,-80.5 2438,-86.5 2432,-86.5"/>
<text text-anchor="start" x="2278" y="-71.3" font-family="Helvetica,sans-Serif" font-size="14.00">squared_error = 17.16</text>
<text text-anchor="start" x="2295" y="-56.3" font-family="Helvetica,sans-Serif" font-size="14.00">samples = 47460</text>
<text text-anchor="start" x="2309" y="-41.3" font-family="Helvetica,sans-Serif" font-size="14.00">value = &#45;9.93</text>
</g>
<!-- 17&#45;&gt;20 -->
<g id="edge28" class="edge">
<title>17&#45;&gt;20</title>
<path fill="none" stroke="black" d="M2357,-736.75C2357,-618.98 2357,-222.09 2357,-98.24"/>
<polygon fill="black" stroke="black" points="2360.5,-98.31 2357,-88.31 2353.5,-98.31 2360.5,-98.31"/>
</g>
<!-- 13 -->
<g id="node32" class="node">
<title>13</title>
<path fill="#fceee5" stroke="black" d="M2816,-86.5C2816,-86.5 2666,-86.5 2666,-86.5 2660,-86.5 2654,-80.5 2654,-74.5 2654,-74.5 2654,-45.5 2654,-45.5 2654,-39.5 2660,-33.5 2666,-33.5 2666,-33.5 2816,-33.5 2816,-33.5 2822,-33.5 2828,-39.5 2828,-45.5 2828,-45.5 2828,-74.5 2828,-74.5 2828,-80.5 2822,-86.5 2816,-86.5"/>
<text text-anchor="start" x="2662" y="-71.3" font-family="Helvetica,sans-Serif" font-size="14.00">squared_error = 25.67</text>
<text text-anchor="start" x="2679" y="-56.3" font-family="Helvetica,sans-Serif" font-size="14.00">samples = 94771</text>
<text text-anchor="start" x="2693" y="-41.3" font-family="Helvetica,sans-Serif" font-size="14.00">value = &#45;9.18</text>
</g>
<!-- 12&#45;&gt;13 -->
<g id="edge31" class="edge">
<title>12&#45;&gt;13</title>
<path fill="none" stroke="black" d="M2741,-972.64C2741,-827.46 2741,-251.02 2741,-98.3"/>
<polygon fill="black" stroke="black" points="2744.5,-98.35 2741,-88.35 2737.5,-98.35 2744.5,-98.35"/>
</g>
<!-- 14 -->
<g id="node33" class="node">
<title>14</title>
<path fill="#f2bf9a" stroke="black" d="M3008,-805C3008,-805 2858,-805 2858,-805 2852,-805 2846,-799 2846,-793 2846,-793 2846,-749 2846,-749 2846,-743 2852,-737 2858,-737 2858,-737 3008,-737 3008,-737 3014,-737 3020,-743 3020,-749 3020,-749 3020,-793 3020,-793 3020,-799 3014,-805 3008,-805"/>
<text text-anchor="start" x="2885" y="-789.8" font-family="Helvetica,sans-Serif" font-size="14.00">family ≤ 30.5</text>
<text text-anchor="start" x="2854" y="-774.8" font-family="Helvetica,sans-Serif" font-size="14.00">squared_error = 60.22</text>
<text text-anchor="start" x="2866.5" y="-759.8" font-family="Helvetica,sans-Serif" font-size="14.00">samples = 222328</text>
<text text-anchor="start" x="2885" y="-744.8" font-family="Helvetica,sans-Serif" font-size="14.00">value = &#45;2.52</text>
</g>
<!-- 12&#45;&gt;14 -->
<g id="edge32" class="edge">
<title>12&#45;&gt;14</title>
<path fill="none" stroke="black" d="M2768.1,-972.97C2802.31,-931.28 2861.19,-859.52 2898.55,-813.98"/>
<polygon fill="black" stroke="black" points="2901.13,-816.36 2904.77,-806.41 2895.72,-811.92 2901.13,-816.36"/>
</g>
<!-- 15 -->
<g id="node34" class="node">
<title>15</title>
<path fill="#eb9c63" stroke="black" d="M3008,-86.5C3008,-86.5 2858,-86.5 2858,-86.5 2852,-86.5 2846,-80.5 2846,-74.5 2846,-74.5 2846,-45.5 2846,-45.5 2846,-39.5 2852,-33.5 2858,-33.5 2858,-33.5 3008,-33.5 3008,-33.5 3014,-33.5 3020,-39.5 3020,-45.5 3020,-45.5 3020,-74.5 3020,-74.5 3020,-80.5 3014,-86.5 3008,-86.5"/>
<text text-anchor="start" x="2854" y="-71.3" font-family="Helvetica,sans-Serif" font-size="14.00">squared_error = 33.22</text>
<text text-anchor="start" x="2871" y="-56.3" font-family="Helvetica,sans-Serif" font-size="14.00">samples = 86112</text>
<text text-anchor="start" x="2892" y="-41.3" font-family="Helvetica,sans-Serif" font-size="14.00">value = 2.4</text>
</g>
<!-- 14&#45;&gt;15 -->
<g id="edge33" class="edge">
<title>14&#45;&gt;15</title>
<path fill="none" stroke="black" d="M2933,-736.75C2933,-618.98 2933,-222.09 2933,-98.24"/>
<polygon fill="black" stroke="black" points="2936.5,-98.31 2933,-88.31 2929.5,-98.31 2936.5,-98.31"/>
</g>
<!-- 16 -->
<g id="node35" class="node">
<title>16</title>
<path fill="#f6d5bd" stroke="black" d="M3195.5,-568C3195.5,-568 3054.5,-568 3054.5,-568 3048.5,-568 3042.5,-562 3042.5,-556 3042.5,-556 3042.5,-512 3042.5,-512 3042.5,-506 3048.5,-500 3054.5,-500 3054.5,-500 3195.5,-500 3195.5,-500 3201.5,-500 3207.5,-506 3207.5,-512 3207.5,-512 3207.5,-556 3207.5,-556 3207.5,-562 3201.5,-568 3195.5,-568"/>
<text text-anchor="start" x="3077" y="-552.8" font-family="Helvetica,sans-Serif" font-size="14.00">family ≤ 32.5</text>
<text text-anchor="start" x="3050.5" y="-537.8" font-family="Helvetica,sans-Serif" font-size="14.00">squared_error = 52.3</text>
<text text-anchor="start" x="3058.5" y="-522.8" font-family="Helvetica,sans-Serif" font-size="14.00">samples = 136216</text>
<text text-anchor="start" x="3077" y="-507.8" font-family="Helvetica,sans-Serif" font-size="14.00">value = &#45;5.63</text>
</g>
<!-- 14&#45;&gt;16 -->
<g id="edge34" class="edge">
<title>14&#45;&gt;16</title>
<path fill="none" stroke="black" d="M2960.1,-736.83C2994.31,-694.96 3053.19,-622.89 3090.55,-577.16"/>
<polygon fill="black" stroke="black" points="3093.15,-579.51 3096.77,-569.55 3087.73,-575.08 3093.15,-579.51"/>
</g>
<!-- 25 -->
<g id="node36" class="node">
<title>25</title>
<path fill="#f9e4d4" stroke="black" d="M3200,-86.5C3200,-86.5 3050,-86.5 3050,-86.5 3044,-86.5 3038,-80.5 3038,-74.5 3038,-74.5 3038,-45.5 3038,-45.5 3038,-39.5 3044,-33.5 3050,-33.5 3050,-33.5 3200,-33.5 3200,-33.5 3206,-33.5 3212,-39.5 3212,-45.5 3212,-45.5 3212,-74.5 3212,-74.5 3212,-80.5 3206,-86.5 3200,-86.5"/>
<text text-anchor="start" x="3046" y="-71.3" font-family="Helvetica,sans-Serif" font-size="14.00">squared_error = 44.48</text>
<text text-anchor="start" x="3063" y="-56.3" font-family="Helvetica,sans-Serif" font-size="14.00">samples = 91592</text>
<text text-anchor="start" x="3077" y="-41.3" font-family="Helvetica,sans-Serif" font-size="14.00">value = &#45;7.71</text>
</g>
<!-- 16&#45;&gt;25 -->
<g id="edge35" class="edge">
<title>16&#45;&gt;25</title>
<path fill="none" stroke="black" d="M3125,-499.81C3125,-414.55 3125,-188.25 3125,-98.47"/>
<polygon fill="black" stroke="black" points="3128.5,-98.49 3125,-88.49 3121.5,-98.49 3128.5,-98.49"/>
</g>
<!-- 26 -->
<g id="node37" class="node">
<title>26</title>
<path fill="#f0b78d" stroke="black" d="M3392,-86.5C3392,-86.5 3242,-86.5 3242,-86.5 3236,-86.5 3230,-80.5 3230,-74.5 3230,-74.5 3230,-45.5 3230,-45.5 3230,-39.5 3236,-33.5 3242,-33.5 3242,-33.5 3392,-33.5 3392,-33.5 3398,-33.5 3404,-39.5 3404,-45.5 3404,-45.5 3404,-74.5 3404,-74.5 3404,-80.5 3398,-86.5 3392,-86.5"/>
<text text-anchor="start" x="3238" y="-71.3" font-family="Helvetica,sans-Serif" font-size="14.00">squared_error = 41.24</text>
<text text-anchor="start" x="3255" y="-56.3" font-family="Helvetica,sans-Serif" font-size="14.00">samples = 44624</text>
<text text-anchor="start" x="3269" y="-41.3" font-family="Helvetica,sans-Serif" font-size="14.00">value = &#45;1.36</text>
</g>
<!-- 16&#45;&gt;26 -->
<g id="edge36" class="edge">
<title>16&#45;&gt;26</title>
<path fill="none" stroke="black" d="M3138.5,-499.81C3173.33,-414.2 3265.99,-186.4 3302.2,-97.37"/>
<polygon fill="black" stroke="black" points="3305.34,-98.96 3305.86,-88.38 3298.85,-96.33 3305.34,-98.96"/>
</g>
</g>
</svg>
